<?xml version="1.0" encoding="utf-8"?>
<!-- Generator: Adobe Illustrator 19.0.0, SVG Export Plug-In . SVG Version: 6.00 Build 0)  -->
<svg version="1.1" xmlns="http://www.w3.org/2000/svg" xmlns:xlink="http://www.w3.org/1999/xlink" x="0px" y="0px"
	 viewBox="0 0 208.9 196.4" style="enable-background:new 0 0 208.9 196.4;" xml:space="preserve">
<style type="text/css">
	.st0{display:none;}
	.st1{display:inline;fill:#91929A;stroke:#91929A;stroke-width:3;stroke-miterlimit:10;}
	.st2{display:inline;fill:#DADCD9;}
	
		.st3{display:inline;fill:none;stroke:#91929A;stroke-width:3;stroke-linecap:round;stroke-linejoin:round;stroke-miterlimit:22.9256;}
	.st4{display:inline;fill:#91929A;}
	.st5{display:inline;fill:#FFFFFF;stroke:#91929A;stroke-width:3;stroke-miterlimit:10;}
	.st6{display:inline;fill:#DADCD9;stroke:#91929A;stroke-width:3;stroke-miterlimit:10;}
	.st7{display:inline;fill:none;stroke:#91929A;stroke-width:3;stroke-linecap:round;stroke-miterlimit:10;}
	.st8{fill:#909199;stroke:#91929A;stroke-width:3;stroke-linecap:round;stroke-linejoin:round;stroke-miterlimit:22.9256;}
	.st9{fill:none;stroke:#91929A;stroke-width:3;stroke-linecap:round;stroke-linejoin:round;stroke-miterlimit:22.9256;}
	.st10{fill:#91929A;}
	.st11{fill:#D9DCD9;stroke:#91929A;stroke-width:3;stroke-linecap:round;stroke-linejoin:round;stroke-miterlimit:22.9256;}
	.st12{fill:#FFFFFF;stroke:#91929A;stroke-width:3;stroke-linecap:round;stroke-linejoin:round;stroke-miterlimit:22.9256;}
	.st13{display:inline;}
	.st14{fill:#FFFFFF;stroke:#91929A;stroke-width:4;stroke-linecap:round;stroke-linejoin:round;stroke-miterlimit:22.9256;}
	.st15{fill:none;stroke:#909199;stroke-width:4;stroke-linecap:round;stroke-linejoin:round;stroke-miterlimit:22.9256;}
	.st16{fill:#8F9098;stroke:#909199;stroke-width:4;stroke-linecap:round;stroke-linejoin:round;stroke-miterlimit:22.9256;}
	.st17{fill:#D8DCD8;stroke:#909199;stroke-width:4;stroke-linecap:round;stroke-linejoin:round;stroke-miterlimit:22.9256;}
	.st18{fill:#D8DCD8;stroke:#909199;stroke-width:4;stroke-miterlimit:22.9256;}
	.st19{fill:#D8DCD8;stroke:#91929A;stroke-width:4;stroke-linecap:round;stroke-linejoin:round;stroke-miterlimit:22.9256;}
	.st20{fill:#DADCD9;stroke:#91929A;stroke-width:4;stroke-linecap:round;stroke-linejoin:round;stroke-miterlimit:22.9256;}
	.st21{fill:#95979F;}
	
		.st22{display:inline;fill:none;stroke:#91929A;stroke-width:4;stroke-linecap:round;stroke-linejoin:round;stroke-miterlimit:22.9256;}
</style>
<g id="Слой_1" class="st0">
	<path id="XMLID_20_" class="st1" d="M37.5,194.2c0-20.1,16.3-36.5,36.5-36.5s36.5,16.3,36.5,36.5"/>
	<path id="XMLID_19_" class="st2" d="M109.9,71.4L87.5,51.6c2.9-1.9,5.8-3.8,8.7-5.7c5.7,5.1,11.4,10.3,17.1,15.4
		C112.2,64.6,111,68,109.9,71.4z"/>
	<circle id="XMLID_18_" class="st2" cx="129.4" cy="28.9" r="5.8"/>
	<circle id="XMLID_17_" class="st2" cx="117.5" cy="41.2" r="5.8"/>
	<path id="XMLID_8_" class="st3" d="M111.7,61.2l-2,7.7c-0.4,1.4-2.7,1.1-3.7,0.1l-16.7-16c-1-1-1.5-3.3-0.1-3.7l7.4-2.5
		 M104.8,53.8l-0.2-0.2l-10.2-9.7c7.6-10.6,16.2-24.9,24.9-34.1c7.7-8,20.1-9.5,31.7-4.7l0.1,0c5.4,11.6,4.3,24.1-3.3,32
		c-8.8,9.2-22.7,18.3-33,26.4L104.8,53.8L104.8,53.8z M130.3,3.4c6.4-1.8,13.8-1.2,20.9,1.7l0.1,0c3.3,7,4.1,14.4,2.6,20.9
		L130.3,3.4L130.3,3.4z M133.2,24c2.5,2.4,2.6,6.4,0.2,8.9c-2.4,2.5-6.4,2.6-8.9,0.2c-2.5-2.4-2.6-6.4-0.2-8.9
		C126.7,21.6,130.7,21.6,133.2,24L133.2,24z M121.3,36.4c2.5,2.4,2.6,6.4,0.2,8.9c-2.4,2.5-6.4,2.6-8.9,0.2
		c-2.5-2.4-2.6-6.4-0.2-8.9C114.8,34,118.8,33.9,121.3,36.4L121.3,36.4z M94.6,43.8l14.1-20.6c-4.6-0.9-9.3-2.9-13.7-2.6
		c-13.7,1-16.1,13-17.3,24.3L94.6,43.8L94.6,43.8z M115,63.4l20-15c1.1,4.5,3.3,9.2,3.2,13.6c-0.4,13.8-12.3,16.6-23.6,18.3
		L115,63.4L115,63.4z M98.1,38.4l22.2,21.1"/>
	
		<rect id="XMLID_7_" x="93.3" y="48.6" transform="matrix(0.727 0.6866 -0.6866 0.727 64.8827 -59.7919)" class="st4" width="28.8" height="6.3"/>
	<path id="XMLID_6_" class="st5" d="M64.3,194.5c0-27.7,22.5-50.2,50.2-50.2s50.2,22.5,50.2,50.2"/>
	<path id="XMLID_5_" class="st6" d="M137,193.6c0-18.1,14.7-32.8,32.8-32.8s32.8,14.7,32.8,32.8"/>
	<path id="XMLID_4_" class="st6" d="M10.7,194.8c0-12.7,10.3-23.1,23.1-23.1s23.1,10.3,23.1,23.1"/>
	<path id="XMLID_3_" class="st4" d="M206.2,196.4H1.4c-0.9,0-1.7-0.8-1.7-1.7v-0.3c0-0.9,0.8-1.7,1.7-1.7h204.8
		c0.9,0,1.7,0.8,1.7,1.7v0.3C207.9,195.7,207.2,196.4,206.2,196.4z"/>
	<path id="XMLID_2_" class="st7" d="M22.1,112.4c22.4-20.1,44.7-40.1,67.1-60.2c5.9,5.3,11.8,10.6,17.7,15.9c-18,24-36,48-54,71.9"
		/>
</g>
<g id="Слой_2">
	<path id="XMLID_327_" class="st8" d="M168.1,135h-55.4c-3,0-5.4-2.4-5.4-5.4v-9c0-3,2.4-5.4,5.4-5.4h55.4c3,0,5.4,2.4,5.4,5.4v9
		C173.5,132.6,171.1,135,168.1,135z"/>
	<path id="XMLID_256_" class="st9" d="M146.8,29.4c-2,7-7.5,12-12.7,12.3c-5.2-0.3-10.7-5.4-12.7-12.3l-1,0.2
		c-1.1,0.2-2.2-0.6-2.3-1.7l-1-6.2c-0.2-1.1,0.6-2.2,1.7-2.3l0.7-0.1c-0.3-1-0.5-2-0.5-3.1v-2.3c0-5.6,4.6-10.1,10.1-10.1h1.2
		c0-0.2,0-0.4,0.1-0.5c0.6-1.6,4.8-1.6,9.3,0.1c1,0.4,1.9,0.8,2.7,1.2c3.7,1.5,6.3,5.2,6.3,9.4v2.3c0,1.1-0.2,2.1-0.5,3.1l0.7,0.1
		c1.1,0.2,1.9,1.2,1.7,2.3l-1,6.2c-0.2,1.1-1.2,1.9-2.3,1.7L146.8,29.4L146.8,29.4z"/>
	<g id="XMLID_154_">
		<g id="XMLID_103_">
			<path id="XMLID_107_" class="st10" d="M120.8,17.4c8.5,0.9,16.7-2.3,21.2-9.7c1.7-2.7-2.6-5.3-4.3-2.5c-3.7,6-10.2,8-16.9,7.2
				C117.6,12,117.6,17,120.8,17.4L120.8,17.4z"/>
		</g>
	</g>
	<g id="XMLID_155_">
		<g id="XMLID_97_">
			<path id="XMLID_101_" class="st10" d="M134.8,13.4c3.1,1.9,10.4,5,13.1,1.1c3.3-4.7-4.2-5.8-5.4-8.7c-0.7,1.3-1.4,2.5-2.2,3.8
				c0.6,0,1.2,0,1.7,0.1c3.2,0.7,4.3-3.7,1.3-4.8c-3.9-1.5-7.9-2.3-11.4,0.6c-2.3,1.8-4,2.5-6.7,3.3c-0.8,0.2-3.8,2.3-4.4,2.3
				c0.7,0.4,1.4,0.8,2.2,1.2c-0.8-1.6,6.4-2.9,7.2-3.1c0.3-0.1,3.8-1.5,3.4-1.7c2.9,1.3,5.5-3.1,2.5-4.3c-1.9-0.8-2.8-0.8-4.7-0.1
				c-2.2,0.8-5,1.3-7.2,2.4c-3.1,1.4-7.5,4.2-6,8.2c1.7,4.6,5.2,1.2,7.8,0c2.1-0.9,4.5-0.7,6.5-2c0.9-0.6,1.6-1.9,2.5-2.3
				c2.4-1.1,4.8-0.6,7.1,0.3c0.4-1.6,0.9-3.2,1.3-4.8c-1.3-0.3-1.8-0.4-3.1-0.2c-2,0.2-2.9,2-2.2,3.8c1,2.3,5.1,3.1,5.6,5.1
				c0.2-0.8,0.4-1.6,0.6-2.4c-1.4,1.5-5.9-1.1-7.1-1.9C134.6,7.4,132.1,11.7,134.8,13.4L134.8,13.4z"/>
		</g>
	</g>
	<g id="XMLID_156_">
		<g id="XMLID_91_">
			<path id="XMLID_95_" class="st10" d="M137,11.1c1.3,1.2,2.7,2.1,4.3,2.7c1.2,0.5,2.8-0.5,3.1-1.7c0.3-1.4-0.4-2.6-1.7-3.1
				c-0.3-0.1-0.3-0.1,0,0c-0.1-0.1-0.3-0.1-0.4-0.2c-0.3-0.1-0.5-0.3-0.7-0.4c-0.1-0.1-0.8-0.6-0.4-0.2c-0.2-0.2-0.4-0.4-0.6-0.6
				c-0.9-0.9-2.6-1-3.5,0C136.1,8.6,136,10.1,137,11.1L137,11.1z"/>
		</g>
	</g>
	<path id="XMLID_254_" class="st11" d="M119,113.3c-5.5-1.3-16.1-4.6-20-13.5c-0.5-1.3-1.1-2.8-1.4-6.1c-1-11.7-1.1-26.2-1.1-33
		c0-0.6,0-1.2,0-1.7c0-3.9,3.9-6.1,7.2-6.8c3-0.6,14.1-3,17.7-5.5l0.2,0c2,9.1,4.1,18.2,6.1,27.2c1.4-5.6,2.9-11.2,4.3-16.8
		l-3.3-8.6h10.7l-3.3,8.6c1.8,5.8,3.5,11.5,5.3,17.3c1.7-9.2,3.4-18.5,5.2-27.7l0.2,0c3.6,2.5,14.8,4.9,17.7,5.5
		c3.3,0.7,7.2,2.9,7.2,6.8v1.7c-0.5,4.4-1,8.8-1.5,13.2"/>
	<g id="XMLID_157_">
		<g id="XMLID_85_">
			<path id="XMLID_89_" class="st10" d="M129.6,51.1c0.3,1.8,1.2,3.3,2.3,4.7c0.7,0.9,2.1,0.9,3,0.4c2.3-1.2,3.7-3.7,3.6-6.3
				c-0.1-1.3-1.1-2.6-2.5-2.5c-1.3,0.1-2.6,1.1-2.5,2.5c0,0.2,0,0.3,0,0.5c0,0.2-0.1,0.3,0,0c0,0.2-0.1,0.3-0.1,0.5
				c0.1-0.3,0,0-0.1,0.2c0,0-0.3,0.4-0.1,0.2c0.1-0.2-0.2,0.2-0.2,0.2c-0.3,0.3,0.3-0.2,0,0.1c-0.2,0.1-0.3,0.2-0.5,0.3
				c1,0.1,2,0.3,3,0.4c0.2,0.3-0.2-0.3-0.2-0.4c-0.1-0.2-0.2-0.3-0.3-0.5c-0.1-0.3-0.2-0.3-0.1-0.2c-0.1-0.3-0.3-1-0.4-1.5
				c-0.3-1.3-1.8-2.1-3.1-1.7C130,48.4,129.3,49.8,129.6,51.1L129.6,51.1z"/>
		</g>
	</g>
	<g id="XMLID_158_">
		<g id="XMLID_79_">
			<path id="XMLID_83_" class="st10" d="M131.3,56c0.9,3.8,2.6,7,3.8,10.7c1,3.2,0.8,6.5,2.3,9.6c1.4,2.9,5.7,0.4,4.3-2.5
				c-1.4-3-1-6.5-2.2-9.5c-1.2-3.2-2.6-6.2-3.4-9.5C135.4,51.5,130.6,52.8,131.3,56L131.3,56z"/>
		</g>
	</g>
	<g id="XMLID_159_">
		<g id="XMLID_73_">
			<path id="XMLID_77_" class="st10" d="M130.7,60.5c-0.3,4.7,0,9.9-1.1,14.5c-0.7,3.1,4.1,4.5,4.8,1.3c1.2-5.1,0.9-10.7,1.2-15.8
				C135.9,57.3,130.9,57.3,130.7,60.5L130.7,60.5z"/>
		</g>
	</g>
	<g id="XMLID_160_">
		<g id="XMLID_67_">
			<path id="XMLID_71_" class="st10" d="M129,69.2c-0.8,1.6-1.6,3.3-2.2,5.1c-0.8,2.2,1.9,3.8,3.7,2.8c3.7-2,6.7-5,8.7-8.6
				c-1.6-0.4-3.1-0.8-4.7-1.3c0.1,1,0.2,2,0.2,3.1c0,0.7,0.2,2.1-0.1,2.7c0.3-0.3,0.6-0.6,0.9-0.9c0.7-0.4-0.6,0-0.8,0.1
				c-0.6,0.2-1,0.5-1.4,0.9c-2.1,2.4,1.4,6,3.5,3.5c0.1-0.1,0.1-0.1,0.2-0.2c-0.4,0.2-0.7,0.4-1.1,0.6c0.4-0.1,1.4-0.2,2-0.5
				c0.9-0.5,1.4-1.4,1.6-2.4c0.4-2.2,0.3-4.6,0-6.8c-0.3-2.3-3.3-3.6-4.7-1.3c-1.7,2.9-4,5.2-6.9,6.8c1.2,0.9,2.4,1.9,3.7,2.8
				c0.5-1.3,1-2.6,1.7-3.9C134.8,68.8,130.4,66.3,129,69.2L129,69.2z"/>
		</g>
	</g>
	<g id="XMLID_161_">
		<g id="XMLID_61_">
			<path id="XMLID_65_" class="st10" d="M126.6,78.5c5,2.1,10.5,1.8,15.6-0.1c3-1.1,1.7-6-1.3-4.8c-3.6,1.3-8.2,2.1-11.8,0.6
				C126.2,72.9,123.6,77.2,126.6,78.5L126.6,78.5z"/>
		</g>
	</g>
	<rect id="XMLID_269_" x="78.6" y="112.6" class="st8" width="127.9" height="8.2"/>
	<path id="XMLID_228_" class="st12" d="M179.6,111.6h-55.9c-3,0-5.4-2.4-5.4-5.4V79.7c0-3,2.4-5.4,5.4-5.4h55.9c3,0,5.4,2.4,5.4,5.4
		v26.6C184.9,109.2,182.5,111.6,179.6,111.6z"/>
	<path id="XMLID_323_" class="st11" d="M136,182.1h-21v-51.5c0-4.7,3.8-8.5,8.5-8.5h4c4.7,0,8.5,3.8,8.5,8.5V182.1z"/>
	<path id="XMLID_324_" class="st11" d="M166,182.1h-21v-51.5c0-4.7,3.8-8.5,8.5-8.5h4c4.7,0,8.5,3.8,8.5,8.5V182.1z"/>
	<path id="XMLID_325_" class="st8" d="M138,194.3h-24v-1.8c0-5.4,4.4-9.8,9.8-9.8h4.3c5.4,0,9.8,4.4,9.8,9.8V194.3z"/>
	<path id="XMLID_326_" class="st8" d="M169,194.3h-24v-1.8c0-5.4,4.4-9.8,9.8-9.8h4.3c5.4,0,9.8,4.4,9.8,9.8V194.3z"/>
	<path id="XMLID_49_" class="st11" d="M77.1,162.6v29.3c0,1.4-1.2,2.6-2.6,2.6H9.6c-1.4,0-2.6-1.2-2.6-2.6V163"/>
	<path id="XMLID_48_" class="st9" d="M30.3,137.4V130c0-2.3,1.9-4.3,4.3-4.3h15c2.3,0,4.3,2,4.3,4.3v7.5"/>
	<path id="XMLID_47_" class="st12" d="M34.9,168.4c-10.9-0.5-21.9-2.8-31.7-7.5l0-20.7c0-1.4,1.2-2.6,2.6-2.6h72.4
		c1.4,0,2.6,1.2,2.6,2.6l0,20.2c-9.9,5.2-21.1,7.5-32.1,8.1"/>
	<path id="XMLID_46_" class="st8" d="M37.4,164.7h9.4c0.8,0,1.4,0.6,1.4,1.4v6.4c0,0.8-0.6,1.4-1.4,1.4h-9.4c-0.8,0-1.4-0.6-1.4-1.4
		v-6.4C35.9,165.3,36.6,164.7,37.4,164.7L37.4,164.7z"/>
</g>
<g id="Слой_3" class="st0">
	<g id="XMLID_229_" class="st13">
		<path id="XMLID_397_" class="st14" d="M14,40.1h142.2v101.3H14V40.1L14,40.1z M2.3,39.6H168 M85.2,39.6V27.2 M85.5,164.1l45.8,29
			 M84.8,164.1l-45.8,29"/>
		<path id="XMLID_253_" class="st10" d="M85.3,195.4h-0.8c-0.8,0-1.5-0.6-1.5-1.5v-50.3c0-0.8,0.6-1.5,1.5-1.5h0.8
			c0.8,0,1.5,0.6,1.5,1.5V194C86.8,194.8,86.1,195.4,85.3,195.4z"/>
		<g id="XMLID_51_">
			<line id="XMLID_232_" class="st15" x1="32.2" y1="130.2" x2="137.3" y2="130.2"/>
			<polygon id="XMLID_231_" class="st16" points="38,112.8 52,112.8 52,130 38,130 38,112.8 			"/>
			<polygon id="XMLID_230_" class="st17" points="64.5,84.8 78.5,84.8 78.5,130 64.5,130 64.5,84.8 			"/>
			<polygon id="XMLID_227_" class="st16" points="91,116.5 105.1,116.5 105.1,130 91,130 91,116.5 			"/>
			<polygon id="XMLID_226_" class="st17" points="117.6,102.2 131.6,102.2 131.6,130 117.6,130 117.6,102.2 			"/>
		</g>
		<g id="XMLID_50_">
			<path id="XMLID_299_" class="st18" d="M38.9,83.3c-5.3,0-9.7,4.3-9.7,9.7c0,5.3,4.3,9.7,9.7,9.7c5.3,0,9.7-4.3,9.7-9.7
				C48.5,87.7,44.2,83.3,38.9,83.3L38.9,83.3z M70.5,51.2c-5.3,0-9.7,4.3-9.7,9.7c0,5.3,4.3,9.7,9.7,9.7c5.3,0,9.7-4.3,9.7-9.7
				C80.2,55.5,75.9,51.2,70.5,51.2L70.5,51.2z M102.1,79.9c-5.3,0-9.7,4.3-9.7,9.7c0,5.3,4.3,9.7,9.7,9.7c5.3,0,9.7-4.3,9.7-9.7
				C111.8,84.3,107.5,79.9,102.1,79.9L102.1,79.9z M133.8,65.3c-5.3,0-9.7,4.3-9.7,9.7c0,5.3,4.3,9.7,9.7,9.7c5.3,0,9.7-4.3,9.7-9.7
				C143.4,69.7,139.1,65.3,133.8,65.3L133.8,65.3z"/>
			<line id="XMLID_235_" class="st15" x1="47.5" y1="84.2" x2="62.5" y2="69.5"/>
			<line id="XMLID_234_" class="st15" x1="79.2" y1="68.8" x2="94.3" y2="82.6"/>
			<line id="XMLID_233_" class="st15" x1="111.7" y1="85.5" x2="123" y2="80"/>
		</g>
	</g>
	<g id="XMLID_396_" class="st13">
		<path id="XMLID_392_" class="st19" d="M151.3,72.8c-0.1-1.9-0.5-4.9-2.2-7.8c-2.6-4.3-5.6-4.6-8.6-8.4c-4-5-3.9-11.1-3.9-13.3
			c0.1-8.9,5.2-14.8,6.7-16.5c7.3-7.9,17.1-8.2,19.6-8.2c1.9,0,12.8,0,20.6,8.5c1.3,1.4,5,5.6,6.1,12.1c0.3,1.9,0.7,6.1-0.9,11
			c-0.5,1.5-1.5,4.3-4,7c-1.8,2-2.9,2.2-4.9,4.2c-2.3,2.3-3.6,4.7-4.3,6.3 M151.7,91.7l23.7-6.2 M151.7,73.9l23.7-6.2 M171.3,88.9
			c0,4.1-3.8,7.4-8.5,7.4c-2.9,0-5.5-1.3-7.1-3.3 M163.6,1.3v8 M192.6,12.3l-5.6,5.6 M205.7,43.4h-8 M191.4,73.1l-5.6-5.6
			 M134.2,12.3l5.6,5.6"/>
		<path id="XMLID_224_" class="st20" d="M175.8,86.3c-8.2,1.9-16.3,3.7-24.5,5.6c0-3.9,0-7.7,0-11.6c8.2-2,16.3-4,24.5-6
			C175.8,78.4,175.8,82.3,175.8,86.3z"/>
		
			<ellipse id="XMLID_223_" transform="matrix(0.9798 -0.1998 0.1998 0.9798 -15.2836 34.6037)" class="st21" cx="163.8" cy="93" rx="8.8" ry="4.4"/>
	</g>
	<polyline id="XMLID_225_" class="st22" points="152.8,46.5 161.5,58.4 174.5,35.4 	"/>
</g>
</svg>
